<svg width="135" height="104" viewBox="0 0 135 104" fill="none" xmlns="http://www.w3.org/2000/svg">
<path d="M46.2288 33.705C46.852 34.6215 47.2767 34.8767 47.826 35.4966L49.237 36.8256C49.4968 37.267 49.9214 37.6239 50.1123 38.1171C50.5689 39.0379 51.073 40.0143 51.2319 41.0881C51.6826 43.1987 51.6484 45.4067 51.5342 47.3307C51.2105 51.1867 50.7301 54 50.7301 54C50.7301 54 53.3671 52.0058 55.4625 48.0562C55.9853 47.0755 56.4945 45.9727 56.826 44.7411C57.1625 43.5178 57.4945 42.1766 57.4173 40.7273C57.4173 39.3009 57.1972 37.7213 56.4625 36.1893C56.173 35.4034 55.5602 34.6818 55.0936 33.9274C54.8228 33.5562 54.457 33.2307 54.136 32.8824L53.6214 32.3642L53.3666 32.1091L53.3054 32.0491C53.3374 32.0802 53.3876 32.1219 53.4858 32.2069L53.457 32.1819L53.3666 32.0844C52.9264 31.6116 52.0511 30.9464 51.9584 30.6477C51.7461 30.3058 51.4488 30.0153 51.2475 29.4846C50.7698 28.5724 50.3986 27.5232 50.2105 26.4618C49.7968 24.3263 49.852 22.114 49.9662 20.1779C50.2899 16.3176 50.7196 13.5 50.7196 13.5C50.7196 13.5 48.1123 15.5153 46.0164 19.4524C44.974 21.4138 44.0429 23.8684 44 26.742C44.0374 28.1641 44.0717 29.7316 44.8196 31.2701C45.0648 32.0156 45.6297 32.8778 46.2288 33.705ZM53.3063 32.0484C53.3118 32.0527 53.2137 31.9635 53.3063 32.0484V32.0484Z" fill="#FF9E00"/>
<path d="M59.6567 20.2065C60.28 21.1249 60.7048 21.3797 61.2541 21.9995L62.6652 23.3283C62.9278 23.7697 63.3498 24.1265 63.5411 24.6175C63.9969 25.5399 64.5038 26.5161 64.6604 27.5902C65.1112 29.7004 65.0797 31.9081 64.9655 33.8296C64.639 37.685 64.1618 40.5 64.1618 40.5C64.1618 40.5 66.7958 38.5039 68.8915 34.5571C69.4144 33.5766 69.9236 32.4719 70.2524 31.2405C70.5917 30.0173 70.921 28.6763 70.8465 27.2294C70.8465 25.8032 70.6237 24.2239 69.8916 22.6899C69.6048 21.9064 68.9892 21.1849 68.5225 20.4284C68.2517 20.0595 67.8859 19.7319 67.5676 19.3836L67.0612 18.8737L66.8059 18.619L66.7347 18.5483C66.7689 18.5776 66.8169 18.619 66.915 18.7057L66.894 18.6789L66.7954 18.5815C66.3552 18.1151 65.4797 17.4436 65.387 17.1471C65.1774 16.8031 64.8778 16.5191 64.676 15.9881C64.1983 15.0697 63.8293 14.027 63.6389 12.9658C63.2302 10.8246 63.2859 8.61903 63.4 6.68292C63.7215 2.81925 64.1567 0 64.1567 0C64.1567 0 61.5459 2.01711 59.4498 5.95143C58.4022 7.91431 57.4711 10.3667 57.4286 13.242C57.4711 14.664 57.4998 16.2311 58.2538 17.7672C58.5004 18.513 59.0653 19.3754 59.6567 20.2065ZM66.7351 18.5483C66.7461 18.5526 66.6502 18.4673 66.7351 18.5483V18.5483Z" fill="#FF9E00"/>
<path d="M79.7944 32.5837C80.4204 33.4492 80.8451 33.6898 81.3967 34.2756L82.8082 35.5307C83.068 35.9476 83.4923 36.2847 83.6836 36.7484C84.1398 37.6196 84.6439 38.5421 84.8028 39.5562C85.249 41.5494 85.2166 43.6346 85.1056 45.4516C84.7818 49.0912 84.3042 51.75 84.3042 51.75C84.3042 51.75 86.9358 49.8667 89.0369 46.1367C89.557 45.2106 90.0661 44.1671 90.3949 43.004C90.7347 41.8507 91.0634 40.5821 90.9895 39.2155C90.9895 37.8684 90.7666 36.3767 90.0342 34.9298C89.7478 34.1876 89.1323 33.5062 88.6656 32.7917C88.3898 32.4432 88.0286 32.1338 87.7103 31.8048L87.2011 31.3252L86.9463 31.0846L86.8879 31.0239C86.9194 31.0516 86.9678 31.0924 87.0632 31.1726L87.0313 31.1392L86.9358 31.0472C86.4952 30.6067 85.6202 29.9724 85.5298 29.6923C85.3175 29.3674 85.0152 29.0991 84.8188 28.5976C84.3357 27.7301 83.9699 26.7453 83.779 25.743C83.3703 23.7205 83.4238 21.6373 83.5407 19.8085C83.8695 16.1629 84.2937 13.5 84.2937 13.5C84.2937 13.5 81.689 15.4052 79.593 19.1234C78.5422 20.9757 77.6139 23.2918 77.5714 26.0076C77.6139 27.3506 77.6404 28.8309 78.3938 30.2818C78.6377 30.9842 79.2053 31.7967 79.7944 32.5837ZM86.8829 31.0155C86.8879 31.0192 86.7874 30.939 86.8829 31.0155V31.0155Z" fill="#FF9E00"/>
<path d="M121.533 52.0544C119.608 52.7242 117.137 54.9691 115.525 56.5822C115.458 52.5692 115.324 49.7789 115.294 48.9824H118.866V44H15.019V48.9824H19.0678C19.0292 49.7942 18.8879 52.7137 18.8312 56.887C17.2481 55.3599 15.1501 53.5665 13.4646 52.9805C10.3529 51.8998 0 52.9805 0 52.9805V57.1105C0 57.1105 10.1748 56.7603 12.3627 58.0136C14.5608 59.2664 16.9158 69.8752 18.7461 69.8752C18.813 69.8752 18.9238 69.8752 18.9982 69.8752C19.4954 81.1945 21.1064 93.4623 25.5181 97.4246H20.0434V104H113.358V97.4246H108.838C113.358 93.3558 114.953 80.5098 115.407 68.9617C115.726 68.9617 116.014 68.9617 116.241 68.9617C118.063 68.9617 120.431 58.3481 122.624 57.1001C124.807 55.842 135 56.1865 135 56.1865V52.0596C134.99 52.0543 124.622 50.9841 121.533 52.0544ZM31.7039 89.0231C30.7176 87.1049 29.7473 84.7813 29.014 82.1941C28.566 80.9404 28.3759 79.4898 28.072 78.0942C27.7118 76.6532 27.6807 75.2532 27.57 73.8934C27.4335 72.5944 27.4233 71.0114 27.5004 69.6215C27.539 68.2115 27.5855 66.8417 27.6963 65.5221C27.8456 64.1929 27.7866 62.9243 28.072 61.7069C28.3086 60.5096 28.5354 59.3681 28.7362 58.3179C29.6059 54.1015 31.045 51.5801 31.045 51.5801C31.045 51.5801 31.0295 52.298 31.1558 53.536C31.2768 54.7818 31.2714 56.4507 31.5497 58.5306C31.7296 60.5908 31.8559 62.9444 32.2139 65.4911C32.3942 66.7596 32.4996 68.0583 32.6104 69.3774C32.6569 70.7272 32.9427 71.8791 33.1226 73.355C33.4802 76.1855 33.8922 78.5601 34.2551 81.0871C34.6025 83.5884 34.9193 85.9477 35.1997 87.9564C35.7093 92.03 35.8302 94.9981 35.8302 94.9981C35.8302 94.9981 33.6649 92.8837 31.7039 89.0231Z" fill="#FF9E00"/>
</svg>
