<svg width="60" height="42" viewBox="0 0 60 42" fill="none" xmlns="http://www.w3.org/2000/svg">
<path d="M20.4958 15.451C20.7743 15.8583 20.9641 15.9717 21.2095 16.2472L21.8399 16.8379C21.956 17.0341 22.1457 17.1927 22.231 17.4119C22.435 17.8211 22.6603 18.2551 22.7313 18.7323C22.9327 19.6704 22.9174 20.6517 22.8663 21.5068C22.7217 23.2206 22.5071 24.4709 22.5071 24.4709C22.5071 24.4709 23.6853 23.5846 24.6215 21.8293C24.8551 21.3934 25.0826 20.9033 25.2307 20.3559C25.3811 19.8122 25.5294 19.2161 25.495 18.572C25.495 17.938 25.3966 17.236 25.0684 16.5551C24.939 16.2058 24.6652 15.8851 24.4567 15.5498C24.3357 15.3848 24.1723 15.2402 24.0289 15.0854L23.7989 14.8551L23.6851 14.7416L23.6577 14.715C23.672 14.7288 23.6945 14.7474 23.7383 14.7851L23.7255 14.774L23.6851 14.7307C23.4884 14.5205 23.0973 14.2249 23.0559 14.0921C22.961 13.9402 22.8282 13.8111 22.7382 13.5752C22.5248 13.1698 22.3589 12.7035 22.2749 12.2318C22.09 11.2826 22.1147 10.2994 22.1657 9.43891C22.3104 7.72319 22.5024 6.47095 22.5024 6.47095C22.5024 6.47095 21.3374 7.36663 20.401 9.11645C19.9352 9.98818 19.5192 11.0791 19.5 12.3563C19.5167 12.9883 19.532 13.685 19.8662 14.3687C19.9758 14.7001 20.2282 15.0833 20.4958 15.451ZM23.6582 14.7147C23.6606 14.7166 23.6167 14.6769 23.6582 14.7147V14.7147Z" fill="#FF9E00"/>
<path d="M26.4955 9.4516C26.7741 9.8598 26.9638 9.97304 27.2093 10.2485L27.8398 10.8391C27.9571 11.0353 28.1456 11.1938 28.2311 11.4121C28.4348 11.822 28.6613 12.2559 28.7313 12.7333C28.9326 13.6711 28.9186 14.6523 28.8676 15.5063C28.7217 17.2199 28.5084 18.4709 28.5084 18.4709C28.5084 18.4709 29.6854 17.5838 30.6217 15.8297C30.8554 15.3939 31.0829 14.9029 31.2298 14.3556C31.3814 13.812 31.5285 13.216 31.4953 12.5729C31.4953 11.939 31.3957 11.2371 31.0686 10.5554C30.9405 10.2071 30.6654 9.88645 30.4569 9.55024C30.3359 9.38626 30.1724 9.24068 30.0302 9.0859L29.8039 8.85928L29.6899 8.74604L29.658 8.71464C29.6733 8.72765 29.6948 8.74604 29.7386 8.78458L29.7292 8.77269L29.6852 8.72939C29.4885 8.52212 29.0973 8.22366 29.0559 8.09187C28.9622 7.93899 28.8284 7.81276 28.7382 7.57678C28.5248 7.16857 28.3599 6.70518 28.2748 6.23354C28.0922 5.28186 28.1171 4.30163 28.1681 3.44113C28.3117 1.72395 28.5062 0.470947 28.5062 0.470947C28.5062 0.470947 27.3397 1.36744 26.4031 3.11603C25.935 3.98842 25.519 5.07839 25.5 6.35629C25.519 6.98826 25.5318 7.68478 25.8687 8.3675C25.9789 8.69894 26.2313 9.08225 26.4955 9.4516ZM29.6582 8.71464C29.6631 8.71655 29.6203 8.67864 29.6582 8.71464V8.71464Z" fill="#FF9E00"/>
<path d="M35.4932 14.9526C35.773 15.3373 35.9627 15.4442 36.2092 15.7046L36.8398 16.2624C36.9559 16.4477 37.1455 16.5975 37.231 16.8036C37.4348 17.1908 37.6601 17.6008 37.7311 18.0515C37.9304 18.9374 37.9159 19.8641 37.8663 20.6716C37.7217 22.2892 37.5083 23.4709 37.5083 23.4709C37.5083 23.4709 38.6841 22.6339 39.6229 20.9762C39.8553 20.5645 40.0827 20.1008 40.2297 19.5839C40.3815 19.0713 40.5284 18.5075 40.4953 17.9C40.4953 17.3013 40.3957 16.6384 40.0685 15.9953C39.9405 15.6655 39.6655 15.3626 39.457 15.045C39.3337 14.8901 39.1724 14.7526 39.0301 14.6064L38.8026 14.3933L38.6888 14.2863L38.6627 14.2594C38.6768 14.2716 38.6984 14.2898 38.741 14.3254L38.7267 14.3106L38.6841 14.2697C38.4872 14.0739 38.0963 13.792 38.0559 13.6675C37.961 13.5231 37.8259 13.4039 37.7382 13.181C37.5223 12.7954 37.3589 12.3578 37.2736 11.9123C37.091 11.0134 37.1149 10.0875 37.1671 9.27475C37.314 7.65445 37.5036 6.47095 37.5036 6.47095C37.5036 6.47095 36.3398 7.31772 35.4033 8.97022C34.9338 9.79348 34.519 10.8228 34.5 12.0299C34.519 12.6268 34.5308 13.2847 34.8675 13.9295C34.9764 14.2417 35.23 14.6028 35.4932 14.9526ZM38.6604 14.2556C38.6627 14.2573 38.6178 14.2216 38.6604 14.2556V14.2556Z" fill="#FF9E00"/>
<path d="M54.0147 18.1032C53.1589 18.4053 52.0607 19.4176 51.3445 20.1451C51.3147 18.3354 51.2552 17.077 51.2417 16.7178H52.8293V14.4709H6.67509V16.7178H8.47457C8.45744 17.0839 8.39462 18.4005 8.36941 20.2825C7.66581 19.5939 6.73338 18.7851 5.98429 18.5209C4.6013 18.0335 0 18.5209 0 18.5209V20.3834C0 20.3834 4.52213 20.2254 5.49454 20.7906C6.47147 21.3556 7.51812 26.1398 8.3316 26.1398C8.36134 26.1398 8.41057 26.1398 8.44365 26.1398C8.6646 31.2444 9.38061 36.7768 11.3414 38.5637H8.90819V41.5289H50.3811V38.5637H48.3723C50.3811 36.7287 51.0904 30.9357 51.2919 25.7278C51.4337 25.7278 51.5617 25.7278 51.6625 25.7278C52.4722 25.7278 53.525 20.9414 54.4996 20.3786C55.4696 19.8113 60 19.9667 60 19.9667V18.1056C59.9955 18.1032 55.3875 17.6205 54.0147 18.1032ZM14.0906 34.7749C13.6523 33.9098 13.221 32.862 12.8951 31.6952C12.696 31.1298 12.6115 30.4756 12.4764 29.8463C12.3163 29.1964 12.3026 28.5651 12.2533 27.9519C12.1927 27.366 12.1881 26.6522 12.2224 26.0254C12.2395 25.3895 12.2602 24.7718 12.3094 24.1767C12.3758 23.5772 12.3496 23.0052 12.4764 22.4562C12.5816 21.9162 12.6824 21.4014 12.7716 20.9278C13.1582 19.0264 13.7978 17.8893 13.7978 17.8893C13.7978 17.8893 13.7909 18.2131 13.847 18.7713C13.9008 19.3332 13.8984 20.0858 14.0221 21.0237C14.102 21.9528 14.1582 23.0142 14.3173 24.1627C14.3974 24.7348 14.4443 25.3204 14.4935 25.9153C14.5142 26.524 14.6412 27.0435 14.7212 27.7091C14.8801 28.9855 15.0632 30.0564 15.2245 31.196C15.3789 32.324 15.5197 33.3879 15.6443 34.2938C15.8708 36.1309 15.9246 37.4694 15.9246 37.4694C15.9246 37.4694 14.9622 36.5159 14.0906 34.7749Z" fill="#FF9E00"/>
</svg>
