<svg width="295" height="42" viewBox="0 0 295 42" fill="none" xmlns="http://www.w3.org/2000/svg">
<path d="M20.4958 15.451C20.7743 15.8583 20.9641 15.9717 21.2095 16.2472L21.8399 16.8379C21.956 17.0341 22.1457 17.1927 22.231 17.4119C22.435 17.8211 22.6603 18.2551 22.7313 18.7323C22.9327 19.6704 22.9174 20.6517 22.8663 21.5068C22.7217 23.2206 22.5071 24.4709 22.5071 24.4709C22.5071 24.4709 23.6853 23.5846 24.6215 21.8293C24.8551 21.3934 25.0826 20.9033 25.2307 20.3559C25.3811 19.8122 25.5294 19.2161 25.495 18.572C25.495 17.938 25.3966 17.236 25.0683 16.5551C24.939 16.2058 24.6652 15.8851 24.4567 15.5498C24.3357 15.3848 24.1723 15.2402 24.0289 15.0854L23.7989 14.8551L23.6851 14.7416L23.6577 14.715C23.672 14.7288 23.6945 14.7474 23.7383 14.7851L23.7255 14.774L23.6851 14.7307C23.4884 14.5205 23.0973 14.2249 23.0559 14.0921C22.961 13.9402 22.8282 13.8111 22.7382 13.5752C22.5248 13.1698 22.3589 12.7035 22.2749 12.2318C22.09 11.2826 22.1147 10.2994 22.1657 9.43891C22.3104 7.72319 22.5024 6.47095 22.5024 6.47095C22.5024 6.47095 21.3374 7.36663 20.401 9.11645C19.9352 9.98818 19.5192 11.0791 19.5 12.3563C19.5167 12.9883 19.532 13.685 19.8662 14.3687C19.9758 14.7001 20.2282 15.0833 20.4958 15.451ZM23.6582 14.7147C23.6606 14.7166 23.6167 14.6769 23.6582 14.7147V14.7147Z" fill="#FF9E00"/>
<path d="M26.4955 9.4516C26.7741 9.8598 26.9638 9.97303 27.2093 10.2485L27.8398 10.8391C27.9571 11.0353 28.1456 11.1938 28.2311 11.4121C28.4348 11.822 28.6613 12.2559 28.7313 12.7333C28.9326 13.6711 28.9186 14.6523 28.8676 15.5063C28.7217 17.2199 28.5084 18.4709 28.5084 18.4709C28.5084 18.4709 29.6854 17.5838 30.6217 15.8297C30.8554 15.3939 31.0829 14.9029 31.2298 14.3556C31.3814 13.812 31.5285 13.216 31.4953 12.5729C31.4953 11.939 31.3957 11.2371 31.0686 10.5554C30.9405 10.2071 30.6654 9.88645 30.4569 9.55024C30.3359 9.38626 30.1724 9.24068 30.0302 9.0859L29.8039 8.85928L29.6899 8.74604L29.658 8.71464C29.6733 8.72765 29.6948 8.74604 29.7386 8.78458L29.7292 8.77269L29.6852 8.72939C29.4885 8.52212 29.0973 8.22366 29.0559 8.09187C28.9622 7.93899 28.8284 7.81276 28.7382 7.57678C28.5248 7.16857 28.3599 6.70518 28.2748 6.23354C28.0922 5.28186 28.1171 4.30163 28.1681 3.44113C28.3117 1.72395 28.5062 0.470947 28.5062 0.470947C28.5062 0.470947 27.3397 1.36744 26.4031 3.11603C25.935 3.98842 25.519 5.07839 25.5 6.35629C25.519 6.98826 25.5318 7.68478 25.8687 8.3675C25.9789 8.69894 26.2313 9.08225 26.4955 9.4516ZM29.6582 8.71464C29.6631 8.71655 29.6203 8.67864 29.6582 8.71464V8.71464Z" fill="#FF9E00"/>
<path d="M35.4932 14.9526C35.773 15.3373 35.9627 15.4442 36.2092 15.7046L36.8398 16.2624C36.9559 16.4477 37.1455 16.5975 37.231 16.8036C37.4348 17.1908 37.6601 17.6008 37.7311 18.0515C37.9304 18.9374 37.9159 19.8641 37.8663 20.6716C37.7217 22.2892 37.5083 23.4709 37.5083 23.4709C37.5083 23.4709 38.6841 22.6339 39.6229 20.9762C39.8553 20.5645 40.0827 20.1008 40.2297 19.5839C40.3815 19.0713 40.5284 18.5075 40.4953 17.9C40.4953 17.3013 40.3957 16.6384 40.0685 15.9953C39.9405 15.6655 39.6655 15.3626 39.457 15.045C39.3337 14.8901 39.1724 14.7526 39.0301 14.6064L38.8026 14.3933L38.6888 14.2863L38.6627 14.2594C38.6768 14.2716 38.6984 14.2898 38.741 14.3254L38.7267 14.3106L38.6841 14.2697C38.4872 14.0739 38.0963 13.792 38.0559 13.6675C37.961 13.5231 37.8259 13.4039 37.7382 13.181C37.5223 12.7954 37.3589 12.3578 37.2736 11.9123C37.091 11.0134 37.1149 10.0875 37.1671 9.27475C37.314 7.65445 37.5036 6.47095 37.5036 6.47095C37.5036 6.47095 36.3398 7.31772 35.4033 8.97022C34.9338 9.79348 34.519 10.8228 34.5 12.0299C34.519 12.6268 34.5308 13.2847 34.8675 13.9295C34.9764 14.2417 35.23 14.6028 35.4932 14.9526ZM38.6604 14.2556C38.6627 14.2573 38.6178 14.2216 38.6604 14.2556V14.2556Z" fill="#FF9E00"/>
<path d="M54.0147 18.1032C53.1589 18.4053 52.0607 19.4176 51.3445 20.1451C51.3147 18.3354 51.2552 17.077 51.2417 16.7178H52.8293V14.4709H6.67509V16.7178H8.47457C8.45744 17.0839 8.39462 18.4005 8.36941 20.2825C7.66581 19.5939 6.73338 18.7851 5.98429 18.5209C4.6013 18.0335 0 18.5209 0 18.5209V20.3834C0 20.3834 4.52213 20.2254 5.49454 20.7906C6.47147 21.3556 7.51812 26.1398 8.3316 26.1398C8.36134 26.1398 8.41057 26.1398 8.44365 26.1398C8.6646 31.2444 9.38061 36.7768 11.3414 38.5637H8.90819V41.5289H50.3811V38.5637H48.3723C50.3811 36.7287 51.0904 30.9357 51.2919 25.7278C51.4337 25.7278 51.5617 25.7278 51.6625 25.7278C52.4722 25.7278 53.525 20.9414 54.4996 20.3786C55.4696 19.8113 60 19.9667 60 19.9667V18.1056C59.9955 18.1032 55.3875 17.6205 54.0147 18.1032ZM14.0906 34.7749C13.6523 33.9098 13.221 32.862 12.8951 31.6952C12.696 31.1298 12.6115 30.4756 12.4764 29.8463C12.3163 29.1964 12.3026 28.5651 12.2533 27.9519C12.1927 27.366 12.1881 26.6522 12.2224 26.0254C12.2395 25.3895 12.2602 24.7718 12.3094 24.1767C12.3758 23.5772 12.3496 23.0052 12.4764 22.4562C12.5816 21.9162 12.6824 21.4014 12.7716 20.9278C13.1582 19.0264 13.7978 17.8893 13.7978 17.8893C13.7978 17.8893 13.7909 18.2131 13.847 18.7713C13.9008 19.3332 13.8984 20.0858 14.0221 21.0237C14.102 21.9528 14.1582 23.0142 14.3173 24.1627C14.3974 24.7348 14.4443 25.3204 14.4935 25.9153C14.5142 26.524 14.6412 27.0435 14.7212 27.7091C14.8801 28.9855 15.0632 30.0564 15.2245 31.196C15.3789 32.324 15.5197 33.3879 15.6443 34.2938C15.8708 36.1309 15.9246 37.4694 15.9246 37.4694C15.9246 37.4694 14.9622 36.5159 14.0906 34.7749Z" fill="#FF9E00"/>
<path d="M90.4 20.4888C90.4 22.5688 89.9733 24.3155 89.12 25.7288C88.28 27.1288 87.12 28.1888 85.64 28.9088C84.1733 29.6155 82.4933 29.9688 80.6 29.9688H74.74V25.2888C75.1 25.2621 75.6533 25.2355 76.4 25.2088C77.1467 25.1821 77.8733 25.1621 78.58 25.1488C79.3 25.1221 79.7933 25.1088 80.06 25.1088C81.1267 25.1088 81.9333 24.8555 82.48 24.3488C83.0267 23.8421 83.3933 23.2355 83.58 22.5288C83.7667 21.8088 83.86 21.1288 83.86 20.4888C83.86 19.8621 83.7667 19.1955 83.58 18.4888C83.3933 17.7688 83.0267 17.1555 82.48 16.6488C81.9333 16.1421 81.1267 15.8888 80.06 15.8888C79.66 15.8888 79.26 15.8888 78.86 15.8888C78.4733 15.8755 78.0067 15.8621 77.46 15.8488V38.5288C76.9267 38.6221 76.36 38.6821 75.76 38.7088C75.1733 38.7488 74.6667 38.7688 74.24 38.7688C73.8533 38.7688 73.3467 38.7488 72.72 38.7088C72.1067 38.6821 71.5467 38.6221 71.04 38.5288V11.4088L71.32 11.1288C73.0267 11.0888 74.62 11.0555 76.1 11.0288C77.5933 10.9888 79.0933 10.9688 80.6 10.9688C82.4933 10.9688 84.1733 11.3155 85.64 12.0088C87.12 12.6888 88.28 13.7355 89.12 15.1488C89.9733 16.5488 90.4 18.3288 90.4 20.4888ZM213.674 11.2088C214.141 11.1021 214.614 11.0355 215.094 11.0088C215.588 10.9821 216.041 10.9688 216.454 10.9688C216.841 10.9688 217.321 11.0021 217.894 11.0688C218.468 11.1355 218.968 11.2421 219.394 11.3888L219.654 11.7488L212.154 38.5288C211.421 38.6088 210.594 38.6688 209.674 38.7088C208.754 38.7488 207.881 38.7688 207.054 38.7688C205.854 38.7688 204.914 38.5755 204.234 38.1888C203.554 37.7888 203.054 37.0221 202.734 35.8888L196.074 11.7888C196.661 11.5355 197.274 11.3155 197.914 11.1288C198.568 10.9421 199.241 10.8488 199.934 10.8488C200.881 10.8488 201.621 11.1021 202.154 11.6088C202.688 12.1155 203.094 12.9221 203.374 14.0288L206.454 25.4088C206.668 26.1955 206.861 27.0021 207.034 27.8288C207.221 28.6421 207.394 29.4621 207.554 30.2888C207.714 31.1021 207.854 31.9021 207.974 32.6888C208.041 33.0221 208.181 33.1888 208.394 33.1888L213.674 11.2088Z" fill="#FF9E00"/>
<path d="M92.7547 33.0688C92.7547 31.4555 93.128 30.1421 93.8747 29.1288C94.6214 28.1021 95.5947 27.3421 96.7947 26.8488C98.008 26.3555 99.3014 26.1088 100.675 26.1088C101.275 26.1088 102.028 26.1221 102.935 26.1488C103.855 26.1755 104.681 26.2621 105.415 26.4088V30.3688C104.841 30.2355 104.148 30.1621 103.335 30.1488C102.535 30.1221 101.868 30.1088 101.335 30.1088C100.441 30.1088 99.8014 30.3488 99.4147 30.8288C99.028 31.2955 98.8347 31.9021 98.8347 32.6488C98.8347 33.1821 99.0014 33.6288 99.3347 33.9888C99.668 34.3355 100.115 34.5088 100.675 34.5088C101.475 34.5088 102.288 34.2221 103.115 33.6488C103.941 33.0755 104.641 32.2888 105.215 31.2888L106.095 35.2488C105.575 35.8621 104.981 36.4688 104.315 37.0688C103.648 37.6688 102.868 38.1621 101.975 38.5488C101.081 38.9355 100.035 39.1288 98.8347 39.1288C97.4614 39.1288 96.3214 38.8221 95.4147 38.2088C94.5214 37.5955 93.8547 36.8221 93.4147 35.8888C92.9747 34.9555 92.7547 34.0155 92.7547 33.0688ZM110.895 35.6488C110.788 36.1955 110.541 36.7888 110.155 37.4288C109.768 38.0688 109.381 38.5421 108.995 38.8488C107.821 38.8221 106.848 38.5555 106.075 38.0488C105.315 37.5421 104.728 36.9221 104.315 36.1888C103.915 35.4421 103.655 34.7155 103.535 34.0088V25.4488C103.535 24.6088 103.321 23.9755 102.895 23.5488C102.481 23.1221 101.821 22.9088 100.915 22.9088C100.061 22.9088 99.128 23.0488 98.1147 23.3288C97.1014 23.5955 96.068 23.8821 95.0147 24.1888C94.5747 23.6821 94.228 23.0288 93.9747 22.2288C93.7347 21.4155 93.5814 20.6221 93.5147 19.8488C94.408 19.4755 95.4014 19.1621 96.4947 18.9088C97.588 18.6421 98.6747 18.4421 99.7547 18.3088C100.848 18.1621 101.821 18.0888 102.675 18.0888C103.848 18.0888 104.975 18.3088 106.055 18.7488C107.135 19.1755 108.021 19.8888 108.715 20.8888C109.421 21.8755 109.775 23.2155 109.775 24.9088V33.0488C109.775 33.6221 109.861 34.1288 110.035 34.5688C110.221 35.0088 110.508 35.3688 110.895 35.6488ZM117.083 18.2888C118.283 18.2888 119.183 18.7021 119.783 19.5288C120.396 20.3421 120.703 21.4421 120.703 22.8288V38.5288C120.263 38.6088 119.763 38.6688 119.203 38.7088C118.656 38.7488 118.116 38.7688 117.583 38.7688C117.063 38.7688 116.523 38.7488 115.963 38.7088C115.416 38.6688 114.909 38.6088 114.443 38.5288V18.5688L114.723 18.2888H117.083ZM131.643 33.5288C131.643 34.3021 131.716 35.0355 131.863 35.7288C132.009 36.4088 132.269 37.0021 132.643 37.5088C132.189 37.8821 131.623 38.2021 130.943 38.4688C130.263 38.7221 129.529 38.8488 128.743 38.8488C127.489 38.8488 126.616 38.5155 126.123 37.8488C125.629 37.1821 125.383 36.2221 125.383 34.9688V26.4688C125.383 25.5621 125.263 24.8955 125.023 24.4688C124.796 24.0288 124.349 23.8088 123.683 23.8088C123.269 23.8088 122.789 23.9221 122.243 24.1488C121.709 24.3621 121.169 24.7221 120.623 25.2288C120.089 25.7355 119.616 26.4088 119.203 27.2488V21.7688C120.149 20.8621 121.169 20.0421 122.263 19.3088C123.369 18.5755 124.629 18.2088 126.043 18.2088C127.269 18.2088 128.296 18.5155 129.123 19.1288C129.949 19.7288 130.576 20.5621 131.003 21.6288C131.429 22.6955 131.643 23.9288 131.643 25.3288V33.5288ZM139.138 30.5688V26.2688H146.678V25.8088C146.678 25.1955 146.591 24.6355 146.418 24.1288C146.244 23.6088 145.964 23.1955 145.578 22.8888C145.204 22.5688 144.698 22.4088 144.058 22.4088C143.084 22.4088 142.398 22.8088 141.998 23.6088C141.611 24.4088 141.418 25.6421 141.418 27.3088V29.1888C141.418 30.0955 141.498 30.9421 141.658 31.7288C141.818 32.5155 142.158 33.1488 142.678 33.6288C143.198 34.1088 143.991 34.3488 145.058 34.3488C145.964 34.3488 146.851 34.2355 147.718 34.0088C148.598 33.7688 149.438 33.4821 150.238 33.1488C150.704 33.6021 151.078 34.1755 151.358 34.8688C151.638 35.5621 151.824 36.2221 151.918 36.8488C150.904 37.5821 149.691 38.1421 148.278 38.5288C146.878 38.9288 145.464 39.1288 144.037 39.1288C142.278 39.1288 140.824 38.8421 139.678 38.2688C138.531 37.6821 137.624 36.8955 136.958 35.9088C136.291 34.9088 135.818 33.7888 135.538 32.5488C135.271 31.2955 135.138 30.0088 135.138 28.6888C135.138 26.6755 135.438 24.8621 136.038 23.2488C136.651 21.6221 137.618 20.3355 138.938 19.3888C140.258 18.4421 141.978 17.9688 144.098 17.9688C145.858 17.9688 147.358 18.3421 148.598 19.0888C149.838 19.8355 150.784 20.8488 151.438 22.1288C152.104 23.3955 152.438 24.8355 152.438 26.4488C152.438 27.3421 152.391 28.0888 152.298 28.6888C152.218 29.2755 152.084 29.9021 151.898 30.5688H139.138ZM165.061 33.9688C165.208 34.4088 165.328 34.8888 165.421 35.4088C165.515 35.9155 165.561 36.4221 165.561 36.9288C165.561 37.1555 165.548 37.3955 165.521 37.6488C165.508 37.9021 165.468 38.1288 165.401 38.3288C164.801 38.4221 164.128 38.5088 163.381 38.5888C162.635 38.6821 161.875 38.7288 161.101 38.7288C159.288 38.7288 158.001 38.2821 157.241 37.3888C156.495 36.4821 156.121 35.0755 156.121 33.1688V9.36881L156.401 9.08881H158.841C160.068 9.08881 160.935 9.36881 161.441 9.92881C161.961 10.4888 162.221 11.4621 162.221 12.8488V32.0688C162.221 33.3355 162.801 33.9688 163.961 33.9688H165.061ZM167.638 33.0688C167.638 31.4555 168.011 30.1421 168.758 29.1288C169.504 28.1021 170.478 27.3421 171.678 26.8488C172.891 26.3555 174.184 26.1088 175.558 26.1088C176.158 26.1088 176.911 26.1221 177.818 26.1488C178.738 26.1755 179.564 26.2621 180.298 26.4088V30.3688C179.724 30.2355 179.031 30.1621 178.218 30.1488C177.418 30.1221 176.751 30.1088 176.218 30.1088C175.324 30.1088 174.684 30.3488 174.298 30.8288C173.911 31.2955 173.718 31.9021 173.718 32.6488C173.718 33.1821 173.884 33.6288 174.218 33.9888C174.551 34.3355 174.998 34.5088 175.558 34.5088C176.358 34.5088 177.171 34.2221 177.998 33.6488C178.824 33.0755 179.524 32.2888 180.098 31.2888L180.978 35.2488C180.458 35.8621 179.864 36.4688 179.198 37.0688C178.531 37.6688 177.751 38.1621 176.858 38.5488C175.964 38.9355 174.918 39.1288 173.718 39.1288C172.344 39.1288 171.204 38.8221 170.298 38.2088C169.404 37.5955 168.738 36.8221 168.298 35.8888C167.858 34.9555 167.638 34.0155 167.638 33.0688ZM185.778 35.6488C185.671 36.1955 185.424 36.7888 185.038 37.4288C184.651 38.0688 184.264 38.5421 183.878 38.8488C182.704 38.8221 181.731 38.5555 180.958 38.0488C180.198 37.5421 179.611 36.9221 179.198 36.1888C178.798 35.4421 178.538 34.7155 178.418 34.0088V25.4488C178.418 24.6088 178.204 23.9755 177.778 23.5488C177.364 23.1221 176.704 22.9088 175.798 22.9088C174.944 22.9088 174.011 23.0488 172.998 23.3288C171.984 23.5955 170.951 23.8821 169.898 24.1888C169.458 23.6821 169.111 23.0288 168.858 22.2288C168.618 21.4155 168.464 20.6221 168.398 19.8488C169.291 19.4755 170.284 19.1621 171.378 18.9088C172.471 18.6421 173.558 18.4421 174.638 18.3088C175.731 18.1621 176.704 18.0888 177.558 18.0888C178.731 18.0888 179.858 18.3088 180.938 18.7488C182.018 19.1755 182.904 19.8888 183.598 20.8888C184.304 21.8755 184.658 23.2155 184.658 24.9088V33.0488C184.658 33.6221 184.744 34.1288 184.918 34.5688C185.104 35.0088 185.391 35.3688 185.778 35.6488ZM225.192 30.5688V26.2688H232.732V25.8088C232.732 25.1955 232.646 24.6355 232.472 24.1288C232.299 23.6088 232.019 23.1955 231.632 22.8888C231.259 22.5688 230.752 22.4088 230.112 22.4088C229.139 22.4088 228.452 22.8088 228.052 23.6088C227.666 24.4088 227.472 25.6421 227.472 27.3088V29.1888C227.472 30.0955 227.552 30.9421 227.712 31.7288C227.872 32.5155 228.212 33.1488 228.732 33.6288C229.252 34.1088 230.046 34.3488 231.112 34.3488C232.019 34.3488 232.906 34.2355 233.772 34.0088C234.652 33.7688 235.492 33.4821 236.292 33.1488C236.759 33.6021 237.132 34.1755 237.412 34.8688C237.692 35.5621 237.879 36.2221 237.972 36.8488C236.959 37.5821 235.746 38.1421 234.332 38.5288C232.932 38.9288 231.519 39.1288 230.092 39.1288C228.332 39.1288 226.879 38.8421 225.732 38.2688C224.586 37.6821 223.679 36.8955 223.012 35.9088C222.346 34.9088 221.872 33.7888 221.592 32.5488C221.326 31.2955 221.192 30.0088 221.192 28.6888C221.192 26.6755 221.492 24.8621 222.092 23.2488C222.706 21.6221 223.672 20.3355 224.992 19.3888C226.312 18.4421 228.032 17.9688 230.152 17.9688C231.912 17.9688 233.412 18.3421 234.652 19.0888C235.892 19.8355 236.839 20.8488 237.492 22.1288C238.159 23.3955 238.492 24.8355 238.492 26.4488C238.492 27.3421 238.446 28.0888 238.352 28.6888C238.272 29.2755 238.139 29.9021 237.952 30.5688H225.192ZM251.116 33.9688C251.263 34.4088 251.383 34.8888 251.476 35.4088C251.569 35.9155 251.616 36.4221 251.616 36.9288C251.616 37.1555 251.603 37.3955 251.576 37.6488C251.563 37.9021 251.523 38.1288 251.456 38.3288C250.856 38.4221 250.183 38.5088 249.436 38.5888C248.689 38.6821 247.929 38.7288 247.156 38.7288C245.343 38.7288 244.056 38.2821 243.296 37.3888C242.549 36.4821 242.176 35.0755 242.176 33.1688V9.36881L242.456 9.08881H244.896C246.123 9.08881 246.989 9.36881 247.496 9.92881C248.016 10.4888 248.276 11.4621 248.276 12.8488V32.0688C248.276 33.3355 248.856 33.9688 250.016 33.9688H251.116ZM260.875 38.5288C259.995 38.6888 258.962 38.7688 257.775 38.7688C256.722 38.7688 255.715 38.6888 254.755 38.5288V9.36881L255.035 9.08881H257.475C258.702 9.08881 259.575 9.36881 260.095 9.92881C260.615 10.4888 260.875 11.4621 260.875 12.8488V38.5288ZM271.815 33.5288C271.815 34.3021 271.888 35.0355 272.035 35.7288C272.182 36.4088 272.435 37.0021 272.795 37.5088C272.342 37.8821 271.775 38.2021 271.095 38.4688C270.415 38.7221 269.682 38.8488 268.895 38.8488C267.642 38.8488 266.768 38.5155 266.275 37.8488C265.795 37.1821 265.555 36.2221 265.555 34.9688V26.4688C265.555 25.5621 265.435 24.8955 265.195 24.4688C264.955 24.0288 264.502 23.8088 263.835 23.8088C263.435 23.8088 262.962 23.9221 262.415 24.1488C261.868 24.3755 261.322 24.7421 260.775 25.2488C260.242 25.7421 259.775 26.4088 259.375 27.2488V21.7888C260.308 20.8688 261.322 20.0421 262.415 19.3088C263.522 18.5755 264.788 18.2088 266.215 18.2088C267.428 18.2088 268.448 18.5155 269.275 19.1288C270.115 19.7288 270.748 20.5621 271.175 21.6288C271.602 22.6955 271.815 23.9288 271.815 25.3288V33.5288ZM275.294 33.0688C275.294 31.4555 275.667 30.1421 276.414 29.1288C277.16 28.1021 278.134 27.3421 279.334 26.8488C280.547 26.3555 281.84 26.1088 283.214 26.1088C283.814 26.1088 284.567 26.1221 285.474 26.1488C286.394 26.1755 287.22 26.2621 287.954 26.4088V30.3688C287.38 30.2355 286.687 30.1621 285.874 30.1488C285.074 30.1221 284.407 30.1088 283.874 30.1088C282.98 30.1088 282.34 30.3488 281.954 30.8288C281.567 31.2955 281.374 31.9021 281.374 32.6488C281.374 33.1821 281.54 33.6288 281.874 33.9888C282.207 34.3355 282.654 34.5088 283.214 34.5088C284.014 34.5088 284.827 34.2221 285.654 33.6488C286.48 33.0755 287.18 32.2888 287.754 31.2888L288.634 35.2488C288.114 35.8621 287.52 36.4688 286.854 37.0688C286.187 37.6688 285.407 38.1621 284.514 38.5488C283.62 38.9355 282.574 39.1288 281.374 39.1288C280 39.1288 278.86 38.8221 277.954 38.2088C277.06 37.5955 276.394 36.8221 275.954 35.8888C275.514 34.9555 275.294 34.0155 275.294 33.0688ZM293.434 35.6488C293.327 36.1955 293.08 36.7888 292.694 37.4288C292.307 38.0688 291.92 38.5421 291.534 38.8488C290.36 38.8221 289.387 38.5555 288.614 38.0488C287.854 37.5421 287.267 36.9221 286.854 36.1888C286.454 35.4421 286.194 34.7155 286.074 34.0088V25.4488C286.074 24.6088 285.86 23.9755 285.434 23.5488C285.02 23.1221 284.36 22.9088 283.454 22.9088C282.6 22.9088 281.667 23.0488 280.654 23.3288C279.64 23.5955 278.607 23.8821 277.554 24.1888C277.114 23.6821 276.767 23.0288 276.514 22.2288C276.274 21.4155 276.12 20.6221 276.054 19.8488C276.947 19.4755 277.94 19.1621 279.034 18.9088C280.127 18.6421 281.214 18.4421 282.294 18.3088C283.387 18.1621 284.36 18.0888 285.214 18.0888C286.387 18.0888 287.514 18.3088 288.594 18.7488C289.674 19.1755 290.56 19.8888 291.254 20.8888C291.96 21.8755 292.314 23.2155 292.314 24.9088V33.0488C292.314 33.6221 292.4 34.1288 292.574 34.5688C292.76 35.0088 293.047 35.3688 293.434 35.6488Z" fill="white"/>
</svg>
