<svg width="506" height="104" viewBox="0 0 506 104" fill="none" xmlns="http://www.w3.org/2000/svg">
<path d="M46.2288 33.705C46.852 34.6215 47.2767 34.8767 47.826 35.4966L49.237 36.8256C49.4968 37.267 49.9214 37.6239 50.1123 38.1171C50.5689 39.0379 51.073 40.0143 51.2319 41.0881C51.6826 43.1987 51.6484 45.4067 51.5342 47.3307C51.2105 51.1867 50.7301 54 50.7301 54C50.7301 54 53.3671 52.0058 55.4625 48.0562C55.9853 47.0755 56.4945 45.9727 56.826 44.7411C57.1625 43.5178 57.4945 42.1766 57.4173 40.7273C57.4173 39.3009 57.1972 37.7213 56.4625 36.1893C56.173 35.4034 55.5602 34.6818 55.0936 33.9274C54.8228 33.5562 54.457 33.2307 54.136 32.8824L53.6214 32.3642L53.3666 32.1091L53.3054 32.0491C53.3374 32.0802 53.3876 32.1219 53.4858 32.2069L53.457 32.1819L53.3666 32.0844C52.9264 31.6116 52.0511 30.9464 51.9584 30.6477C51.7461 30.3058 51.4488 30.0153 51.2475 29.4846C50.7698 28.5724 50.3986 27.5232 50.2105 26.4618C49.7968 24.3263 49.852 22.114 49.9662 20.1779C50.2899 16.3176 50.7196 13.5 50.7196 13.5C50.7196 13.5 48.1123 15.5153 46.0164 19.4524C44.974 21.4138 44.0429 23.8684 44 26.742C44.0374 28.1641 44.0717 29.7316 44.8196 31.2701C45.0648 32.0156 45.6297 32.8778 46.2288 33.705ZM53.3063 32.0484C53.3118 32.0527 53.2137 31.9635 53.3063 32.0484V32.0484Z" fill="#FF9E00"/>
<path d="M59.6567 20.2065C60.28 21.1249 60.7047 21.3797 61.2541 21.9995L62.6652 23.3283C62.9278 23.7697 63.3498 24.1265 63.5411 24.6175C63.9969 25.5399 64.5038 26.5161 64.6604 27.5902C65.1112 29.7004 65.0796 31.9081 64.9655 33.8296C64.639 37.685 64.1617 40.5 64.1617 40.5C64.1617 40.5 66.7958 38.5039 68.8915 34.5571C69.4144 33.5766 69.9236 32.4719 70.2524 31.2405C70.5917 30.0173 70.9209 28.6763 70.8465 27.2294C70.8465 25.8032 70.6236 24.2239 69.8916 22.6899C69.6048 21.9064 68.9892 21.1849 68.5225 20.4284C68.2517 20.0595 67.8859 19.7319 67.5676 19.3836L67.0611 18.8737L66.8059 18.619L66.7346 18.5483C66.7689 18.5776 66.8168 18.619 66.915 18.7057L66.894 18.6789L66.7954 18.5815C66.3551 18.1151 65.4797 17.4436 65.387 17.1471C65.1774 16.8031 64.8778 16.5191 64.6759 15.9881C64.1983 15.0697 63.8293 14.027 63.6388 12.9658C63.2301 10.8246 63.2858 8.61903 63.4 6.68292C63.7215 2.81925 64.1567 0 64.1567 0C64.1567 0 61.5459 2.01711 59.4498 5.95143C58.4022 7.91431 57.471 10.3667 57.4286 13.242C57.471 14.664 57.4998 16.2311 58.2538 17.7672C58.5004 18.513 59.0653 19.3754 59.6567 20.2065ZM66.7351 18.5483C66.746 18.5526 66.6501 18.4673 66.7351 18.5483V18.5483Z" fill="#FF9E00"/>
<path d="M79.7944 32.5837C80.4204 33.4492 80.8451 33.6898 81.3968 34.2756L82.8082 35.5307C83.0681 35.9476 83.4923 36.2847 83.6836 36.7484C84.1398 37.6196 84.644 38.5421 84.8029 39.5562C85.249 41.5494 85.2166 43.6346 85.1056 45.4516C84.7819 49.0912 84.3042 51.75 84.3042 51.75C84.3042 51.75 86.9359 49.8667 89.0369 46.1367C89.557 45.2106 90.0662 44.1671 90.3949 43.004C90.7347 41.8507 91.0635 40.5821 90.9895 39.2155C90.9895 37.8684 90.7667 36.3767 90.0342 34.9298C89.7479 34.1876 89.1323 33.5062 88.6656 32.7917C88.3898 32.4432 88.0286 32.1338 87.7103 31.8048L87.2012 31.3252L86.9464 31.0846L86.8879 31.0239C86.9194 31.0516 86.9678 31.0924 87.0633 31.1726L87.0313 31.1392L86.9359 31.0472C86.4952 30.6067 85.6203 29.9724 85.5298 29.6923C85.3175 29.3674 85.0152 29.0991 84.8189 28.5976C84.3357 27.7301 83.9699 26.7453 83.7791 25.743C83.3704 23.7205 83.4238 21.6373 83.5407 19.8085C83.8695 16.1629 84.2937 13.5 84.2937 13.5C84.2937 13.5 81.689 15.4052 79.593 19.1234C78.5423 20.9757 77.6139 23.2918 77.5714 26.0076C77.6139 27.3506 77.6404 28.8309 78.3939 30.2818C78.6377 30.9842 79.2053 31.7967 79.7944 32.5837ZM86.8829 31.0155C86.8879 31.0192 86.7874 30.939 86.8829 31.0155V31.0155Z" fill="#FF9E00"/>
<path d="M121.533 52.0544C119.608 52.7242 117.137 54.9691 115.525 56.5822C115.458 52.5692 115.324 49.7789 115.294 48.9824H118.866V44H15.019V48.9824H19.0678C19.0292 49.7942 18.8879 52.7137 18.8312 56.887C17.2481 55.3599 15.1501 53.5665 13.4646 52.9805C10.3529 51.8998 0 52.9805 0 52.9805V57.1105C0 57.1105 10.1748 56.7603 12.3627 58.0136C14.5608 59.2664 16.9158 69.8752 18.7461 69.8752C18.813 69.8752 18.9238 69.8752 18.9982 69.8752C19.4954 81.1945 21.1064 93.4623 25.5181 97.4246H20.0434V104H113.358V97.4246H108.838C113.358 93.3558 114.953 80.5098 115.407 68.9617C115.726 68.9617 116.014 68.9617 116.241 68.9617C118.063 68.9617 120.431 58.3481 122.624 57.1001C124.807 55.842 135 56.1865 135 56.1865V52.0596C134.99 52.0543 124.622 50.9841 121.533 52.0544ZM31.7039 89.0231C30.7176 87.1049 29.7473 84.7813 29.014 82.1941C28.566 80.9404 28.3759 79.4898 28.072 78.0942C27.7118 76.6532 27.6807 75.2532 27.57 73.8934C27.4335 72.5944 27.4233 71.0114 27.5004 69.6215C27.539 68.2115 27.5855 66.8417 27.6963 65.5221C27.8456 64.1929 27.7866 62.9243 28.072 61.7069C28.3086 60.5096 28.5354 59.3681 28.7362 58.3179C29.6059 54.1015 31.045 51.5801 31.045 51.5801C31.045 51.5801 31.0295 52.298 31.1558 53.536C31.2768 54.7818 31.2714 56.4507 31.5497 58.5306C31.7296 60.5908 31.8559 62.9444 32.2139 65.4911C32.3942 66.7596 32.4996 68.0583 32.6104 69.3774C32.6569 70.7272 32.9427 71.8791 33.1226 73.355C33.4802 76.1855 33.8922 78.5601 34.2551 81.0871C34.6025 83.5884 34.9193 85.9477 35.1997 87.9564C35.7093 92.03 35.8302 94.9981 35.8302 94.9981C35.8302 94.9981 33.6649 92.8837 31.7039 89.0231Z" fill="#FF9E00"/>
<path d="M178.84 64.136C178.84 67.464 178.157 70.2587 176.792 72.52C175.448 74.76 173.592 76.456 171.224 77.608C168.877 78.7387 166.189 79.304 163.16 79.304H153.784V71.816C154.36 71.7733 155.245 71.7307 156.44 71.688C157.635 71.6453 158.797 71.6133 159.928 71.592C161.08 71.5493 161.869 71.528 162.296 71.528C164.003 71.528 165.293 71.1227 166.168 70.312C167.043 69.5013 167.629 68.5307 167.928 67.4C168.227 66.248 168.376 65.16 168.376 64.136C168.376 63.1333 168.227 62.0667 167.928 60.936C167.629 59.784 167.043 58.8027 166.168 57.992C165.293 57.1813 164.003 56.776 162.296 56.776C161.656 56.776 161.016 56.776 160.376 56.776C159.757 56.7547 159.011 56.7333 158.136 56.712V93C157.283 93.1493 156.376 93.2453 155.416 93.288C154.477 93.352 153.667 93.384 152.984 93.384C152.365 93.384 151.555 93.352 150.552 93.288C149.571 93.2453 148.675 93.1493 147.864 93V49.608L148.312 49.16C151.043 49.096 153.592 49.0427 155.96 49C158.349 48.936 160.749 48.904 163.16 48.904C166.189 48.904 168.877 49.4587 171.224 50.568C173.592 51.656 175.448 53.3307 176.792 55.592C178.157 57.832 178.84 60.68 178.84 64.136ZM376.079 49.288C376.826 49.1173 377.583 49.0107 378.351 48.968C379.14 48.9253 379.866 48.904 380.527 48.904C381.146 48.904 381.914 48.9573 382.831 49.064C383.748 49.1707 384.548 49.3413 385.231 49.576L385.647 50.152L373.647 93C372.474 93.128 371.151 93.224 369.679 93.288C368.207 93.352 366.81 93.384 365.487 93.384C363.567 93.384 362.063 93.0747 360.975 92.456C359.887 91.816 359.087 90.5893 358.575 88.776L347.919 50.216C348.858 49.8107 349.839 49.4587 350.863 49.16C351.908 48.8613 352.986 48.712 354.095 48.712C355.61 48.712 356.794 49.1173 357.647 49.928C358.5 50.7387 359.151 52.0293 359.599 53.8L364.527 72.008C364.868 73.2667 365.178 74.5573 365.455 75.88C365.754 77.1813 366.031 78.4933 366.287 79.816C366.543 81.1173 366.767 82.3973 366.959 83.656C367.066 84.1893 367.29 84.456 367.631 84.456L376.079 49.288Z" fill="#FF9E00"/>
<path d="M182.608 84.264C182.608 81.6827 183.205 79.5813 184.4 77.96C185.594 76.3173 187.152 75.1013 189.072 74.312C191.013 73.5227 193.082 73.128 195.28 73.128C196.24 73.128 197.445 73.1493 198.896 73.192C200.368 73.2347 201.69 73.3733 202.864 73.608V79.944C201.946 79.7307 200.837 79.6133 199.536 79.592C198.256 79.5493 197.189 79.528 196.336 79.528C194.906 79.528 193.882 79.912 193.264 80.68C192.645 81.4267 192.336 82.3973 192.336 83.592C192.336 84.4453 192.602 85.16 193.136 85.736C193.669 86.2907 194.384 86.568 195.28 86.568C196.56 86.568 197.861 86.1093 199.184 85.192C200.506 84.2747 201.626 83.016 202.544 81.416L203.952 87.752C203.12 88.7333 202.17 89.704 201.104 90.664C200.037 91.624 198.789 92.4133 197.36 93.032C195.93 93.6507 194.256 93.96 192.336 93.96C190.138 93.96 188.314 93.4693 186.864 92.488C185.434 91.5067 184.368 90.2693 183.664 88.776C182.96 87.2827 182.608 85.7787 182.608 84.264ZM211.632 88.392C211.461 89.2667 211.066 90.216 210.448 91.24C209.829 92.264 209.21 93.0213 208.592 93.512C206.714 93.4693 205.157 93.0427 203.92 92.232C202.704 91.4213 201.765 90.4293 201.104 89.256C200.464 88.0613 200.048 86.8987 199.856 85.768V72.072C199.856 70.728 199.514 69.7147 198.832 69.032C198.17 68.3493 197.114 68.008 195.664 68.008C194.298 68.008 192.805 68.232 191.184 68.68C189.562 69.1067 187.909 69.5653 186.224 70.056C185.52 69.2453 184.965 68.2 184.56 66.92C184.176 65.6187 183.93 64.3493 183.824 63.112C185.253 62.5147 186.842 62.0133 188.592 61.608C190.341 61.1813 192.08 60.8613 193.808 60.648C195.557 60.4133 197.114 60.296 198.48 60.296C200.357 60.296 202.16 60.648 203.888 61.352C205.616 62.0347 207.034 63.176 208.144 64.776C209.274 66.3547 209.84 68.4987 209.84 71.208V84.232C209.84 85.1493 209.978 85.96 210.256 86.664C210.554 87.368 211.013 87.944 211.632 88.392ZM221.532 60.616C223.452 60.616 224.892 61.2773 225.852 62.6C226.833 63.9013 227.324 65.6613 227.324 67.88V93C226.62 93.128 225.82 93.224 224.924 93.288C224.049 93.352 223.185 93.384 222.332 93.384C221.5 93.384 220.636 93.352 219.74 93.288C218.865 93.224 218.055 93.128 217.308 93V61.064L217.756 60.616H221.532ZM244.828 85C244.828 86.2373 244.945 87.4107 245.18 88.52C245.415 89.608 245.831 90.5573 246.428 91.368C245.703 91.9653 244.796 92.4773 243.708 92.904C242.62 93.3093 241.447 93.512 240.188 93.512C238.183 93.512 236.785 92.9787 235.996 91.912C235.207 90.8453 234.812 89.3093 234.812 87.304V73.704C234.812 72.2533 234.62 71.1867 234.236 70.504C233.873 69.8 233.159 69.448 232.092 69.448C231.431 69.448 230.663 69.6293 229.788 69.992C228.935 70.3333 228.071 70.9093 227.196 71.72C226.343 72.5307 225.585 73.608 224.924 74.952V66.184C226.439 64.7333 228.071 63.4213 229.82 62.248C231.591 61.0747 233.607 60.488 235.868 60.488C237.831 60.488 239.473 60.9787 240.796 61.96C242.119 62.92 243.121 64.2533 243.804 65.96C244.487 67.6667 244.828 69.64 244.828 71.88V85ZM256.82 80.264V73.384H268.884V72.648C268.884 71.6667 268.745 70.7707 268.468 69.96C268.191 69.128 267.743 68.4667 267.124 67.976C266.527 67.464 265.716 67.208 264.692 67.208C263.135 67.208 262.036 67.848 261.396 69.128C260.777 70.408 260.468 72.3813 260.468 75.048V78.056C260.468 79.5067 260.596 80.8613 260.852 82.12C261.108 83.3787 261.652 84.392 262.484 85.16C263.316 85.928 264.585 86.312 266.292 86.312C267.743 86.312 269.161 86.1307 270.548 85.768C271.956 85.384 273.3 84.9253 274.58 84.392C275.327 85.1173 275.924 86.0347 276.372 87.144C276.82 88.2533 277.119 89.3093 277.268 90.312C275.647 91.4853 273.705 92.3813 271.444 93C269.204 93.64 266.943 93.96 264.66 93.96C261.844 93.96 259.519 93.5013 257.684 92.584C255.849 91.6453 254.399 90.3867 253.332 88.808C252.265 87.208 251.508 85.416 251.06 83.432C250.633 81.4267 250.42 79.368 250.42 77.256C250.42 74.0347 250.9 71.1333 251.86 68.552C252.841 65.9493 254.388 63.8907 256.5 62.376C258.612 60.8613 261.364 60.104 264.756 60.104C267.572 60.104 269.972 60.7013 271.956 61.896C273.94 63.0907 275.455 64.712 276.5 66.76C277.567 68.7867 278.1 71.0907 278.1 73.672C278.1 75.1013 278.025 76.296 277.876 77.256C277.748 78.1947 277.535 79.1973 277.236 80.264H256.82ZM298.298 85.704C298.533 86.408 298.725 87.176 298.874 88.008C299.023 88.8187 299.098 89.6293 299.098 90.44C299.098 90.8027 299.077 91.1867 299.034 91.592C299.013 91.9973 298.949 92.36 298.842 92.68C297.882 92.8293 296.805 92.968 295.61 93.096C294.415 93.2453 293.199 93.32 291.962 93.32C289.061 93.32 287.002 92.6053 285.786 91.176C284.591 89.7253 283.994 87.4747 283.994 84.424V46.344L284.442 45.896H288.346C290.309 45.896 291.695 46.344 292.506 47.24C293.338 48.136 293.754 49.6933 293.754 51.912V82.664C293.754 84.6907 294.682 85.704 296.538 85.704H298.298ZM302.42 84.264C302.42 81.6827 303.017 79.5813 304.212 77.96C305.407 76.3173 306.964 75.1013 308.884 74.312C310.825 73.5227 312.895 73.128 315.092 73.128C316.052 73.128 317.257 73.1493 318.708 73.192C320.18 73.2347 321.503 73.3733 322.676 73.608V79.944C321.759 79.7307 320.649 79.6133 319.348 79.592C318.068 79.5493 317.001 79.528 316.148 79.528C314.719 79.528 313.695 79.912 313.076 80.68C312.457 81.4267 312.148 82.3973 312.148 83.592C312.148 84.4453 312.415 85.16 312.948 85.736C313.481 86.2907 314.196 86.568 315.092 86.568C316.372 86.568 317.673 86.1093 318.996 85.192C320.319 84.2747 321.439 83.016 322.356 81.416L323.764 87.752C322.932 88.7333 321.983 89.704 320.916 90.664C319.849 91.624 318.601 92.4133 317.172 93.032C315.743 93.6507 314.068 93.96 312.148 93.96C309.951 93.96 308.127 93.4693 306.676 92.488C305.247 91.5067 304.18 90.2693 303.476 88.776C302.772 87.2827 302.42 85.7787 302.42 84.264ZM331.444 88.392C331.273 89.2667 330.879 90.216 330.26 91.24C329.641 92.264 329.023 93.0213 328.404 93.512C326.527 93.4693 324.969 93.0427 323.732 92.232C322.516 91.4213 321.577 90.4293 320.916 89.256C320.276 88.0613 319.86 86.8987 319.668 85.768V72.072C319.668 70.728 319.327 69.7147 318.644 69.032C317.983 68.3493 316.927 68.008 315.476 68.008C314.111 68.008 312.617 68.232 310.996 68.68C309.375 69.1067 307.721 69.5653 306.036 70.056C305.332 69.2453 304.777 68.2 304.372 66.92C303.988 65.6187 303.743 64.3493 303.636 63.112C305.065 62.5147 306.655 62.0133 308.404 61.608C310.153 61.1813 311.892 60.8613 313.62 60.648C315.369 60.4133 316.927 60.296 318.292 60.296C320.169 60.296 321.972 60.648 323.7 61.352C325.428 62.0347 326.847 63.176 327.956 64.776C329.087 66.3547 329.652 68.4987 329.652 71.208V84.232C329.652 85.1493 329.791 85.96 330.068 86.664C330.367 87.368 330.825 87.944 331.444 88.392ZM394.508 80.264V73.384H406.572V72.648C406.572 71.6667 406.433 70.7707 406.156 69.96C405.878 69.128 405.43 68.4667 404.812 67.976C404.214 67.464 403.404 67.208 402.38 67.208C400.822 67.208 399.724 67.848 399.084 69.128C398.465 70.408 398.156 72.3813 398.156 75.048V78.056C398.156 79.5067 398.284 80.8613 398.54 82.12C398.796 83.3787 399.34 84.392 400.172 85.16C401.004 85.928 402.273 86.312 403.98 86.312C405.43 86.312 406.849 86.1307 408.236 85.768C409.644 85.384 410.988 84.9253 412.268 84.392C413.014 85.1173 413.612 86.0347 414.06 87.144C414.508 88.2533 414.806 89.3093 414.956 90.312C413.334 91.4853 411.393 92.3813 409.132 93C406.892 93.64 404.63 93.96 402.347 93.96C399.532 93.96 397.206 93.5013 395.372 92.584C393.537 91.6453 392.086 90.3867 391.02 88.808C389.953 87.208 389.196 85.416 388.748 83.432C388.321 81.4267 388.108 79.368 388.108 77.256C388.108 74.0347 388.588 71.1333 389.548 68.552C390.529 65.9493 392.076 63.8907 394.188 62.376C396.3 60.8613 399.052 60.104 402.444 60.104C405.26 60.104 407.66 60.7013 409.644 61.896C411.628 63.0907 413.142 64.712 414.188 66.76C415.254 68.7867 415.788 71.0907 415.788 73.672C415.788 75.1013 415.713 76.296 415.564 77.256C415.436 78.1947 415.222 79.1973 414.924 80.264H394.508ZM435.986 85.704C436.22 86.408 436.412 87.176 436.562 88.008C436.711 88.8187 436.786 89.6293 436.786 90.44C436.786 90.8027 436.764 91.1867 436.722 91.592C436.7 91.9973 436.636 92.36 436.53 92.68C435.57 92.8293 434.492 92.968 433.298 93.096C432.103 93.2453 430.887 93.32 429.65 93.32C426.748 93.32 424.69 92.6053 423.474 91.176C422.279 89.7253 421.682 87.4747 421.682 84.424V46.344L422.13 45.896H426.034C427.996 45.896 429.383 46.344 430.194 47.24C431.026 48.136 431.442 49.6933 431.442 51.912V82.664C431.442 84.6907 432.37 85.704 434.226 85.704H435.986ZM451.6 93C450.192 93.256 448.539 93.384 446.64 93.384C444.955 93.384 443.344 93.256 441.808 93V46.344L442.256 45.896H446.16C448.123 45.896 449.52 46.344 450.352 47.24C451.184 48.136 451.6 49.6933 451.6 51.912V93ZM469.104 85C469.104 86.2373 469.221 87.4107 469.456 88.52C469.691 89.608 470.096 90.5573 470.672 91.368C469.947 91.9653 469.04 92.4773 467.952 92.904C466.864 93.3093 465.691 93.512 464.432 93.512C462.427 93.512 461.029 92.9787 460.24 91.912C459.472 90.8453 459.088 89.3093 459.088 87.304V73.704C459.088 72.2533 458.896 71.1867 458.512 70.504C458.128 69.8 457.403 69.448 456.336 69.448C455.696 69.448 454.939 69.6293 454.064 69.992C453.189 70.3547 452.315 70.9413 451.44 71.752C450.587 72.5413 449.84 73.608 449.2 74.952V66.216C450.693 64.744 452.315 63.4213 454.064 62.248C455.835 61.0747 457.861 60.488 460.144 60.488C462.085 60.488 463.717 60.9787 465.04 61.96C466.384 62.92 467.397 64.2533 468.08 65.96C468.763 67.6667 469.104 69.64 469.104 71.88V85ZM474.67 84.264C474.67 81.6827 475.267 79.5813 476.462 77.96C477.657 76.3173 479.214 75.1013 481.134 74.312C483.075 73.5227 485.145 73.128 487.342 73.128C488.302 73.128 489.507 73.1493 490.958 73.192C492.43 73.2347 493.753 73.3733 494.926 73.608V79.944C494.009 79.7307 492.899 79.6133 491.598 79.592C490.318 79.5493 489.251 79.528 488.398 79.528C486.969 79.528 485.945 79.912 485.326 80.68C484.707 81.4267 484.398 82.3973 484.398 83.592C484.398 84.4453 484.665 85.16 485.198 85.736C485.731 86.2907 486.446 86.568 487.342 86.568C488.622 86.568 489.923 86.1093 491.246 85.192C492.569 84.2747 493.689 83.016 494.606 81.416L496.014 87.752C495.182 88.7333 494.233 89.704 493.166 90.664C492.099 91.624 490.851 92.4133 489.422 93.032C487.993 93.6507 486.318 93.96 484.398 93.96C482.201 93.96 480.377 93.4693 478.926 92.488C477.497 91.5067 476.43 90.2693 475.726 88.776C475.022 87.2827 474.67 85.7787 474.67 84.264ZM503.694 88.392C503.523 89.2667 503.129 90.216 502.51 91.24C501.891 92.264 501.273 93.0213 500.654 93.512C498.777 93.4693 497.219 93.0427 495.982 92.232C494.766 91.4213 493.827 90.4293 493.166 89.256C492.526 88.0613 492.11 86.8987 491.918 85.768V72.072C491.918 70.728 491.577 69.7147 490.894 69.032C490.233 68.3493 489.177 68.008 487.726 68.008C486.361 68.008 484.867 68.232 483.246 68.68C481.625 69.1067 479.971 69.5653 478.286 70.056C477.582 69.2453 477.027 68.2 476.622 66.92C476.238 65.6187 475.993 64.3493 475.886 63.112C477.315 62.5147 478.905 62.0133 480.654 61.608C482.403 61.1813 484.142 60.8613 485.87 60.648C487.619 60.4133 489.177 60.296 490.542 60.296C492.419 60.296 494.222 60.648 495.95 61.352C497.678 62.0347 499.097 63.176 500.206 64.776C501.337 66.3547 501.902 68.4987 501.902 71.208V84.232C501.902 85.1493 502.041 85.96 502.318 86.664C502.617 87.368 503.075 87.944 503.694 88.392Z" fill="white"/>
</svg>
