<svg width="253" height="172" viewBox="0 0 253 172" fill="none" xmlns="http://www.w3.org/2000/svg">
<path d="M227.103 73.865C223.518 75.1305 218.917 79.3715 215.916 82.4189C215.792 74.8376 215.543 69.5662 215.486 68.0615H222.137V58.6488H28.7875V68.0615H36.3259C36.2541 69.5951 35.991 75.1107 35.8854 82.9947C32.9378 80.1099 29.0317 76.7218 25.8936 75.6147C20.1 73.573 0.824219 75.6147 0.824219 75.6147V83.4171C0.824219 83.4171 19.7683 82.7555 23.8419 85.1231C27.9345 87.4899 32.3191 107.532 35.727 107.532C35.8516 107.532 36.0578 107.532 36.1964 107.532C37.122 128.916 40.1215 152.092 48.3355 159.578H38.1424V172H211.881V159.578H203.466C211.881 151.891 214.852 127.623 215.696 105.806C216.29 105.806 216.826 105.806 217.249 105.806C220.641 105.806 225.051 85.755 229.134 83.3973C233.197 81.0206 252.176 81.6715 252.176 81.6715V73.8749C252.157 73.865 232.854 71.843 227.103 73.865ZM59.8526 143.706C58.0163 140.082 56.2096 135.692 54.8444 130.805C54.0103 128.436 53.6564 125.696 53.0905 123.059C52.4198 120.337 52.3621 117.692 52.1558 115.123C51.9018 112.669 51.8828 109.679 52.0263 107.053C52.0981 104.389 52.1847 101.801 52.391 99.3081C52.669 96.7969 52.5592 94.4004 53.0905 92.1005C53.531 89.8385 53.9534 87.6821 54.3271 85.6981C55.9465 77.7324 58.6259 72.9691 58.6259 72.9691C58.6259 72.9691 58.597 74.3253 58.8322 76.6641C59.0574 79.0176 59.0475 82.1706 59.5655 86.0998C59.9005 89.9919 60.1356 94.4384 60.8021 99.2495C61.1379 101.646 61.3342 104.099 61.5405 106.592C61.6271 109.141 62.1592 111.318 62.4941 114.106C63.1598 119.453 63.927 123.939 64.6027 128.713C65.2494 133.439 65.8393 137.896 66.3615 141.691C67.3102 149.387 67.5354 154.994 67.5354 154.994C67.5354 154.994 63.5038 150.999 59.8526 143.706Z" fill="#717171"/>
</svg>
